<svg width="27" height="28" viewBox="0 0 27 28" fill="none" xmlns="http://www.w3.org/2000/svg">
<path d="M13.667 13.6875C11.8337 13.6875 10.313 13.0835 9.10498 11.8755C7.89632 10.6668 7.29198 9.14583 7.29198 7.3125C7.29198 5.47917 7.89632 3.9585 9.10498 2.7505C10.313 1.54183 11.8337 0.9375 13.667 0.9375C15.5003 0.9375 17.021 1.54183 18.229 2.7505C19.4377 3.9585 20.042 5.47917 20.042 7.3125C20.042 9.14583 19.4377 10.6668 18.229 11.8755C17.021 13.0835 15.5003 13.6875 13.667 13.6875ZM0.333984 27.0625V22.8965C0.333984 21.8685 0.590651 20.9725 1.10398 20.2085C1.61798 19.4445 2.29165 18.8682 3.12498 18.4795C4.93098 17.6462 6.70198 17.0142 8.43798 16.5835C10.174 16.1528 11.917 15.9375 13.667 15.9375C15.417 15.9375 17.153 16.1528 18.875 16.5835C20.5977 17.0142 22.3757 17.6462 24.209 18.4795C25.0423 18.8962 25.7157 19.4795 26.229 20.2295C26.743 20.9795 27 21.8685 27 22.8965V27.0625H0.333984ZM3.12498 24.2715H24.209V22.8965C24.209 22.5072 24.0977 22.1322 23.875 21.7715C23.653 21.4102 23.3753 21.1462 23.042 20.9795C21.3473 20.1462 19.757 19.5628 18.271 19.2295C16.785 18.8962 15.2503 18.7295 13.667 18.7295C12.0837 18.7295 10.542 18.8962 9.04198 19.2295C7.54198 19.5628 5.95865 20.1462 4.29198 20.9795C3.93065 21.1462 3.64598 21.4102 3.43798 21.7715C3.22932 22.1322 3.12498 22.5072 3.12498 22.8965V24.2715ZM13.667 10.9375C14.695 10.9375 15.556 10.5905 16.25 9.8965C16.9447 9.20183 17.292 8.3405 17.292 7.3125C17.292 6.28517 16.9447 5.42417 16.25 4.7295C15.556 4.03483 14.695 3.6875 13.667 3.6875C12.639 3.6875 11.778 4.03483 11.084 4.7295C10.3893 5.42417 10.042 6.28517 10.042 7.3125C10.042 8.3405 10.3893 9.20183 11.084 9.8965C11.778 10.5905 12.639 10.9375 13.667 10.9375Z" fill="#110101"/>
</svg>
