<svg width="548" height="88" viewBox="0 0 548 88" fill="none" xmlns="http://www.w3.org/2000/svg">
<g clip-path="url(#clip0_194_117)">
<path d="M43.115 0C42.765 0 42.415 0 42.0651 0.00877981C30.56 0.280954 19.8511 5.03961 11.9069 13.398C3.96273 21.7564 -0.263083 32.7136 0.00813936 44.2678C0.559333 67.7538 19.7811 86.4811 43.0712 86.4811C43.4124 86.4811 43.7624 86.4811 44.1036 86.4723C67.8574 85.9104 86.7205 66.0593 86.1518 42.2221C85.8806 30.6766 81.1386 19.9302 72.8094 11.9581C64.7427 4.22309 54.2351 0 43.115 0ZM43.0712 74.0401C35.1533 74.0401 27.6641 71.0374 21.9071 65.5325C15.9753 59.8519 12.5981 52.1959 12.4056 43.9693C12.0032 26.9891 25.4418 12.8536 42.3625 12.4498C59.2658 12.0283 73.3694 25.5317 73.7718 42.5118C73.9643 50.7385 70.9546 58.5437 65.3027 64.4965C59.6508 70.4492 52.0128 73.8382 43.8149 74.0313C43.5612 74.0313 43.3162 74.0313 43.0712 74.0313V74.0401Z" fill="#110101"/>
<path d="M94.8053 51.9677H130.125V43.4513H108.366L120.046 32.2921C125.865 26.7257 128.699 21.493 128.699 16.2777C128.699 11.5454 127.02 7.75255 123.695 5.00447C120.361 2.1686 116.276 0.737488 111.56 0.737488C104.158 0.737488 97.8675 4.46013 94.6216 10.7289L102.443 15.11C104.473 11.2645 107.588 9.32414 111.709 9.32414C116.206 9.32414 119.338 12.3356 119.338 16.6465C119.338 19.5263 117.203 23.1348 113.003 27.3842L94.7966 45.2862V51.9589L94.8053 51.9677Z" fill="#110101"/>
<path d="M318.599 86.2967H330.672V48.763C330.672 33.5915 321.582 23.7933 307.522 23.7933C298.082 23.7933 289.919 27.3491 286.236 33.0735L285.028 34.9436V25.5844H272.954V86.2967H285.028V53.6095C285.028 44.3644 290.908 35.0314 304.058 35.0314C313.165 35.0314 318.599 40.6681 318.599 50.1239V86.2967Z" fill="#110101"/>
<path d="M387.533 86.2967H399.607V48.763C399.607 33.5915 390.516 23.7933 376.456 23.7933C367.016 23.7933 358.853 27.3491 355.17 33.0735L353.962 34.9436V25.5844H341.889V86.2967H353.962V53.6095C353.962 44.3644 359.842 35.0314 372.992 35.0314C382.1 35.0314 387.533 40.6681 387.533 50.1239V86.2967Z" fill="#110101"/>
<path d="M438.286 23.8898C421.785 23.8898 408.356 38.2712 408.356 55.9449C408.356 73.6187 421.785 88 438.286 88C448.129 88 457.578 84.6812 463.711 79.0885L457.806 71.371C454.568 73.8908 448.357 77.6486 440.027 77.6486C429.143 77.6486 421.506 68.2191 420.666 59.4832L420.596 58.7632H466.205C467.447 49.5269 464.779 40.0447 459.013 33.3106C455.338 29.0172 448.759 23.8986 438.304 23.8986L438.286 23.8898ZM454.77 49.4127H421.217L421.322 48.6577C422.389 41.3177 428.356 33.89 437.709 33.89C447.062 33.89 453.606 41.3968 454.665 48.6577L454.77 49.4127Z" fill="#110101"/>
<path d="M523.196 14.4867V69.9224C523.196 76.0156 524.762 80.4494 527.842 83.0833C530.817 85.6207 533.844 87.0957 540.537 87.0957C542.094 87.0957 542.812 87.0342 544.045 86.9201C545.078 86.8235 546.889 86.6128 548 86.4723V76.955C547.65 76.9901 547.248 77.0428 546.863 77.0779C546.399 77.1306 545.97 77.1745 545.743 77.2008C545.139 77.2623 544.43 77.2886 543.652 77.2886C540.808 77.2886 538.595 76.6653 537.09 75.4361C535.541 74.1718 534.763 71.9242 534.763 68.7635V37.1825H548.009V27.3842H534.763V14.4867H523.205H523.196Z" fill="#110101"/>
<path d="M504.622 24.5834C504.377 24.5834 504.123 24.5834 503.878 24.5834C486.713 24.9961 473.073 39.3423 473.484 56.5683C473.676 64.9179 477.106 72.688 483.125 78.4475C489.145 84.2071 497.019 87.2625 505.357 87.0781C508.218 87.0079 511.044 86.5513 513.773 85.7085V73.6626C511.088 75.0585 508.104 75.8224 505.094 75.9014C499.74 76.0243 494.683 74.0576 490.816 70.3613C486.949 66.665 484.753 61.6693 484.621 56.3137C484.499 50.958 486.459 45.8657 490.142 41.985C493.826 38.1043 498.804 35.9006 504.141 35.7689C507.5 35.6899 510.799 36.4537 513.773 37.999V25.9619C510.808 25.0488 507.737 24.5834 504.622 24.5834Z" fill="#110101"/>
<path d="M233.479 23.7757C233.225 23.7757 232.971 23.7757 232.717 23.7845C224.397 23.9777 216.663 27.4194 210.915 33.4599C205.175 39.5004 202.122 47.4285 202.314 55.7694C202.717 72.7495 216.61 86.2792 233.444 86.2792C233.689 86.2792 233.942 86.2792 234.196 86.2704C251.362 85.8578 265.002 71.5116 264.59 54.2856C264.389 45.936 260.968 38.1746 254.949 32.4063C249.113 26.8223 241.51 23.767 233.479 23.767V23.7757ZM233.444 75.1025C228.282 75.1025 223.4 73.1446 219.655 69.5537C215.788 65.8574 213.592 60.8616 213.461 55.506C213.198 44.4434 221.956 35.2246 232.98 34.9612C243.995 34.7329 253.19 43.4864 253.453 54.549C253.575 59.9047 251.615 64.9969 247.932 68.8776C244.249 72.7583 239.27 74.962 233.933 75.0937C233.767 75.0937 233.61 75.0937 233.444 75.0937V75.1025Z" fill="#110101"/>
<path d="M184.79 0C184.449 0 184.099 0 183.757 0.00877981C172.252 0.280954 161.543 5.03961 153.599 13.398C145.655 21.7564 141.429 32.7136 141.709 44.2678C142.26 67.7538 161.482 86.4811 184.772 86.4811C185.114 86.4811 185.463 86.4811 185.805 86.4723C189.628 86.3845 193.443 85.7699 197.152 84.6461V72.1085C193.478 73.6977 189.567 74.5581 185.525 74.6547C168.28 75.0937 153.897 61.3094 153.486 43.9956C153.074 26.6818 166.784 12.2566 184.037 11.844C188.587 11.7386 192.996 12.5902 197.152 14.3989V1.81742C193.145 0.605807 188.989 0 184.79 0Z" fill="#110101"/>
</g>
<defs>
<clipPath id="clip0_194_117">
<rect width="548" height="88" fill="white"/>
</clipPath>
</defs>
</svg>
